<svg xmlns="http://www.w3.org/2000/svg" width="835.8" height="835.8" viewBox="0 0 835.8 835.8" fill="#b3b3b3">
    <g transform="scale(.65)" style="transform-origin: center center;">
        <path
            d="m681.4 302 48.4 7.2c11.5 3 22.7 5.7 34.1 7.8 8.3 1.5 16.6 2.6 24.7 5.3 8 4.8 4.6 11.6 4.6 18.2.2 70-1 140-1.3 209.8 0 12 1.4 24.6-.6 36.5l22.5-11 1 2 5.5-2-10.7 8.8c-3.5 2.3-17.6 9-19 10.5-.7.7-1.1 3.5-2.3 4.7l10.5-5 1.5 2c-14.9 5.4-27.7 15-41.3 23.2-55.8 33.5-111.7 67.8-168.4 100.3-7.3 4.2-19.3 13.4-27.3 15.7-5.5 1.6-10.3-1.4-15.1-2.5-20.6-4.6-40.1-10.4-60.1-15.3-21.5 6.3-41.5 17.9-61.5 28-12.3 1.5-25.7 10.3-38 15.6-14.5 6.4-43 20-57.4 22.7-1.2.3-4.3.7-3.4-1.4 1.6-1.7 3.1-3.5 5.3-4.7 7.4-4 18.3-7.2 26.3-10.6 31.7-13.3 63.2-29.7 95.6-43.3 7-3 14.3-5.8 21.6-7.8l-10.7-4.8c-39.4 14.1-75.6 35.5-113.5 53-9 4-54 24-60 23.8-1.6-.1-3 .6-2.6-1.6.7-2.7 8.3-6.1 11.3-7.7 22.6-11.7 49.2-20.6 72.6-31.2 25.3-11.5 48.6-25 74.8-34.2 2.8-1 6.3-1.1 9.1-2.3l-3.4-2c-10.8 4-22.6 7.5-33.1 11.8-15 6.3-30 16.6-46.1 21-2.6.7-3-2.6-4.8 3.2l-2-2c-3 1.1-4.5 4.2-7.2 5.7-26 14.3-69.2 29.4-98 40-9.3 3.4-13.7 6-24 2.5-1-.4-1.2-1.9-1.4-2-42.8-15.3-85.8-31-128.9-46.5-22.6-8.2-45.5-15.5-68-23.9-12.6-4.7-22.4-3.2-23.7-20.3-.6-8.7 0-18.1.1-27 .5-40 .6-80-.3-119.9-.1-8 .4-16.2.1-24 0-3.2-3-5.2-.3-10.4 1.8-3.6 27-12 27.5-13.7.4-8-1.8-18.1-1.1-25.8.1-2 2.2-1 2.1-3-.2-10.3-.9-20.6-1-31-.4-38.7-.8-76.4-1.6-115.3 1.2-5.3 3.8-4 6.4-5.6 15.8-10 34.2-18 50.3-26.5 29.9-16 60.6-34.1 91.5-48.6 17.4-8.2 48.7.9 67.8 1.7 1.2 0 2.1.2 3-1l.3-47.3c2.1-13.7-1-29.6.3-43 .2-1.4 1.8-2.6 1.8-4 0-.5-1.9-.5-2-1.2-.6-2.2.9-15.5.9-18.9.1-8.1-1.4-25.6 1.8-32.1C266.3 99 280.8 92 285.2 90c14.5-6.6 31.4-11.6 44.9-18.5 5.2-2.6 6-2.2 11-2.3.3 0 3.5-3.5 4.5-3.9 6.7-3 12.6-4.8 19.6-8.1 10.2-4.8 14.7-6 24.8-9.2 3.6-1.2 11-5.5 14.3-5.7 9-.6 28.8 1.4 38.8 2 28.7 2 57.3 6.6 86 8.9 31.5 2.5 63.4 2.3 94.9 5 11.3 1 28.2 2.2 38.8 4.1 7.2 1.4 16 3.8 16.7 12.4 1 47 .1 94.2.9 140.8.1 11.3.7 22.8.9 34.1.4 17.4-.1 35 .1 52.4ZM433.5 55.7c-.8-.4-13.7-.6-16.8-.8-12.8-.8-20.9 4.3-33 8-1.4.5-5.7 1.1-5 3.5 12.1-1.1 24 2.5 35.6 3.9C471.2 77 528 83 585 90.4c10 1.3 21.2 4.6 31.2 4.9 8.3.2 32.3-15.3 40.1-20 1-.5 7.7-1.5 3-2.9-7.4 2.8-16.4 0-24.2-.5-35.6-2.3-71.5-4.8-107-7.6-16.6-1.3-35.4-5-50.9-4-8.8.5-37.2-2.1-43.6-4.7Zm177 43.7c-5-.8-10.6-.5-15.5-1-68-7.6-136-18-203.8-24-10-.9-21-4.9-30.5-1 0 2-.5 2 1.5 1.9 15-1.6 28.6 3.3 43.5 2.1l-1 2 7.5-1c-1 3 1.3 3 2 0a9.1 9.1 0 0 0 5.2 2.7c6.6 1.2 15 1.4 21.7 2.3 5.5.8 10.2 3.8 16.6 1l-1 2c4.2 1.6 8.7-.1 13.1.3 24.4 2.2 50.3 9.3 74.3 12.6 12.6 1.7 38 1.1 49 6 2.5 1 2.3 2.8 2.5 3 .6.4 11.6-5.9 13.5-6.9 1-.5 1.9.6 1.4-2Zm-19 10c-14 1-27.7-3.3-41.5-5-59.4-7.6-119.5-14.1-178.6-23.2-5.8-.9-13.8-4-19.2-3.9-7.3 0-24.7 10.5-32.4 13.6-2.9 1.1-25 7.6-25 9 22 3.6 44.3 6.2 66.3 9.6 47.3 7.3 94.6 14.4 141.9 21 7.8 1 16.4 3.9 24.2 4.7 13.3 1.5 17.6-3.8 29.1-8.7 2-.8 3.6-.2 5.2-.8 3.3-1.2 5-7.3 6.5-2.4.8-1.7 3.7-1.5 4.3-2.1.2-.2-.9-2.8 1.7-3.8l2 2c3.5-3.8 8.8-5.3 13.4-7.7 1.3-.7 2.7.5 2.1-2.3Zm76.7 200.6-.8-24.4c2.1-65.4-3-131.8.1-197.8l-1.6-3.4c-3.1 3.5-8.8 4.5-12.4 6.6-1.2.7-3.1 3.4-6 4.9-4.6 2.5-10.9 4.8-15.9 6.6l.7 55.1c-.5 1.6-5 5.3-6.5 6.5a240.4 240.4 0 0 1-27.2 16.8c-1.2.3-2.2.6-3.4.3-1.3-.4-1.5-1.3-1.7-2.4-1.3-7 .6-17.5-1-25 1-8.7 2-20.3 1-29 0-1.5 0-2.5-1.5-3.4L545.5 145l-2 240.5c1.8.3 6-1.8 7.4-2.7 11-6.7 22.2-14.2 32.7-21.2 3.2-2.1 11.2-4.3 13.7-6.2 1.7-1.3 1-2.7 1.9-3.4 3.9-3.2 14.9-7.6 20.5-11.2 16.2-10.4 32.6-20.4 48.6-31Zm-51.7-152.6c12.1-2.2 7-12.8 7-21.5-.2-10.5.2-21 0-31.5-4.5 4.3-16.6 7-20.3 10.9-3.1 3.1-1.2 19.3-1 24.4l-1.7 29.6c5.3-3.5 11.2-8.1 17-10l-1-2Zm-242-33.7c-6.8-1.7-15.2-.8-22-1.7-20.2-2.7-40.8-6.7-60.7-10-2.5-.5-14.5-4.6-16-3.6L274.4 348c1.2 1.7 8.2.7 11 1 17 2.3 34 8.6 50 11.8 24.8 5.1 53.5 7.5 78.7 11.3 19.6 2.9 39.5 5 59 7.8 1.8.3 8.4 4.4 5.6 0h2.5c.8 3.1 2.1 1.2 4.3 1.6 12.6 2.5 25.4 3 37.4 5.6 3 .7 5.7 2.4 8.8 2.8-1.4-9.9 1.7-21 1-30.5-.2-3.5-3.1-4.5 0-7.5l-1.7-.2c-.2-9.8 1.5-19.5 1.7-29.3.1-4.2.7-14.9.5-18-.3-4.1-3.8-7.9.5-13h-2l1.5-143.2c-2.2-3.3-9.4-1.6-13-2.2-6.5-1-12.3-4.7-18.5-1.9l1-2-6-1 .6 2c-23.6-5-47.8-8.2-71.9-11l-1.6-2-.6 2c-15.3-4.4-31.3-3.7-46.9-7-1.8-.3-1.6-1.6-1.8-1.6ZM230.8 258c-1.2.9-19.5-3.6-23.2-2.8-7.1 1.7-16.2 8.7-24 10l-28.8 15.8 36 5.4 71 16.6-1-42-28.6-3.1-.5-1.9h-2l1 2Zm32 50c-1.2.3-1.8.8-3 .5-33.9-7.3-67-14.4-101.2-20.8-2.9-.6-7.9-2.9-10.2-2.7s-5.4 3-7.8 4.2c-15.3 6.9-29.7 16-45.4 22.6L70 327l25.7 6.7c6.7-1.4 14 1.3 19.8 4.3l1-2 17.7 5.3a1600 1600 0 0 1 54.1 10.8c8 1.8 15.6 5.5 23.9 5.7 9.6-4.8 18.6-10.7 28-16l6.4-3.5c6-3.5 16.5-5.6 15.2-14.2-2-.6-4.2-.5-6.3-1-32.5-8.5-66.3-14.6-99.5-22.6-6.9-1.6-13.5-1.6-20.5-4.4-1.2-.5-2 .7-1.5-2l7.3-2.7c25.6 5.6 50.8 12.5 76.8 16L261 318c1.2-2-.2-4.7.2-6.3.3-1.4 2.3-1.9 1.7-3.7Zm465.5 14c-9.1 2.2-18 5.8-27 8.5-26 7.8-51 24.9-76.2 35.6-14.5 6.2-27.2 10.7-41.6 18.4-15.6 8.4-13.3 10-32.3 12.6-3 .4-5.2 3.5-7.5 4.5-9.4 4.3-32.4-5.6-45.2-2.3a443.5 443.5 0 0 0-50.9 25.1c-.6.4-2.4 2-2 2.4 14.7 3.2 29.7 5.5 44.4 8.6 17.8 3.7 36.3 8.8 53.8 11.5 2.1.3 3.9 1.6 6 1.6 7.5 0 9.4-3.5 14.7-6 30.8-15 60.2-34 90.2-50.8 31.7-17.7 63.5-33.7 95.5-51.4 5.4-3 9.4-9.6 17-8.4.3-2.6 0-1.6-1.5-2-4.1-1-8.7-.8-12.5-1.4-1.5-.3-3.2-2.1-5.5-2.5-3-.5-6.4.2-9.4 0l1-2c-2.8-1.9-13.6 5.2-16.8 6.6-33.2 14.8-66.6 29-99.5 44.5-13.6 6.3-26 14.7-41.2 17.8a45 45 0 0 1-6.1.7c-1.2 0-3.5 1.2-3.3-.7l155.9-71Zm-23 2c-18.4 1.8-33.6 13-50.3 20.1-3.4 1.4-7.3 3.5-9.8 4.7-1 .4-2.7-1.1-4.8-.5-2.3.7-11.5 6.8-14.7 8.6-2.2 1.1-3.2 1.9-5 2.9-2.2 1.3-5.8 2-7.3 4.1l91.9-40Zm-500.6 44.8c-.7.3-12-4-14.6-4.7-26.3-5.7-53.2-10.1-79.2-15.6-18.6-4-37-9.8-56-11.6L56 499c4.3-1.6 8.5-3.5 12.9-4.8 3.3-1 7.8-.4 10.9-2 2-1 2-3.5 6-4.1l1.7 1.9c2.6-3.4 9.4 0 9.5-5h-4c2.6-1.7 6.1-.1 8-.6 15.6-4 39.8-15.2 56-21 18.3-6.4 21.1-10.5 42.4-8.4 3.6.4 6.7 2.7 10.5 2 .1-1.9-1-3.5-1-5.4.5-21.6-1.3-44.2-2-66-.2-6 1.3-11.8-.5-17.5-2.2-2.5-1.2.7-1.6.9ZM780.3 339a51 51 0 0 0-8.9 3.6c-56 30.8-110.7 60.7-166.2 91.5-13 7.2-24.2 12-35 22.4-.7.6-2.4.5-3.1 1.4-3.8 5-.6 22.6-.5 29.4 0 11.5-.8 23-.1 34.1v21.5l-2-1-1 9c2.9.4 1.9-.6 2-2.5.1-.7-.6-5.7 1-4l-2 175.3c16-10.7 35.1-17.1 49.7-29.8 34-17.5 65.1-39.6 97.9-59 20-11.8 42.4-22.5 61.6-35.2 1.5-1 1.5-3.5 4.5-3l1.1-105.8 2 .5c.5-2.4-1.8-.6-2-3-.8-7.1.7-14.8.8-22 .5-30.6.5-61.4.2-91.8-.1-10.5.1-21 0-31.5Zm-518.5 5c-.7-.8-9.5 4.5-10.9 5.6-2.6 2.1-4.3 5.4-6.1 6.8-6.2 4.9-14.7 9.2-20.9 14.2-1.8 1.4-6.2 4.7-4.5 7.4 11.5-7.3 21.2-17.2 33.1-23.8 1-.5 2.5-2.2 3.3-.7-5.6 4.8-10.9 9.8-16.5 14.5S223 379 219 384.8c-.6.9-1.8.8-1.1 3.2 1.8.4 2.3-1 3.5-2 13.3-11 24.9-24.6 41-32l-.6-10Zm7 17c-1-7.2-8.9-2.3-12.8-.3L220.9 391c6-2.8 11.6-7.6 16.9-11.6 9-7 16.8-15 27.6-19.4l1 2 2.4-1Zm-33-2c-2.3-.1-19.1 9.7-17 12l17-12Zm46 1c-9.5-1-17 7.7-23 14 7.6-2.8 13-13.8 22-10l1-4Zm5 4c-4 1.7-8 5.2-11.5 8-3.6 3-7.6 6.1-10.5 10l14.2-10 7.8-8Zm7.8 4.8c.5-.5 1.6-4.8-.3-4.8l-20.5 17c1.2 1 6.7-3.7 8-4.5 1-.5 2.5.5 2.8.3 1.5-1 8.3-6.4 8.2-8.3.3-.2 1.7.5 1.8.3Zm-16.8-1.8-.5-2c-20.7 13.4-38 31.4-57.4 46.5l-1 4.5 58.9-49Zm-22 3c-2-.2-3.3 1.6-4.8 2.6-10.8 7.5-21 16.7-31.6 24.4l-1.5 4 38-31Zm104.7 5.4c-1-.4-16.9-2.7-20.3-3.3-12.5-2.2-10.1.1-19.7 4-12.8 5.3-25.4 10.9-38.3 15.8-1.5.5-3-1-2.4 2 12.2.9 23.9 5.4 35.8 7.8 16.2 3.3 41 4.6 54.3 11 1.5.7 11.3 0 14 2.1l46.8-25.8a96 96 0 0 1-25.6-6h-1.8c-2 4.8-2 .7-4-.2-2.8-1.2-12.8-1.3-16.8-2.1-7.2-1.4-16.7-3.1-22-5.3ZM240.9 387c-2-.4-2.4 1-3.5 2a250.8 250.8 0 0 0-19.5 19l10-7.5 13-13.5Zm206.5 4.3c-1.7-1-3.8-.1-5.5.5-11 3.7-23.4 15-35 18.8l-9.2 5.9c2.9 5.3 8.4 2 12.4 2.5s13.5 2.5 16.7 3.5c1.3.4 2.3 2 3.4 2 2.6.4 41-21.3 47.2-24.2 3.6-1.7 7.3-3 11.2-3.3l-36.5-5.9-4 1.9c-.5.2-.3-1.5-.7-1.7ZM265.8 403c-.3-5.2-5.4-2.2-7.9-.5-5.6 3.9-15.4 13-21 18-4.9 4.1-9.7 8.8-14 13.4 3 1.1 3.6.1 5.9-1.6 12.4-9 22.7-23.2 37-29.3Zm-18-2c-4.9 2.1-10 5.9-14.3 9.1-3.6 2.8-7.3 5.8-10.6 8.8 3.7-.8 7.2-4 10.3-6.1a109 109 0 0 0 14.7-11.8Zm178.9 124.4c.4 6.3-.3 13 0 19.4l8-10.5 4-1.4c.6 4.3-12 16.4-12 17.4v15.5c1.7.4 2-.7 3-1.5 3.8-3 9.9-10.2 14-12 1.7-.8 1.8-.3 3 1 0 4-17.5 16.6-19.5 20.6-.2.4-1.3 7.8.5 7.9 1-5.8 7.6-15.8 14-15.5l-14.5 17.5-.5 11c6.6-5.1 10.8-13 16.4-19 1-1 13.2-14.7 13.5-8.5 0 1.8-18.3 25.6-21 29-6.5 8-12.2 9-8 22.4 12.6-11.3 23-27.8 36-38.4.8-.7 2-2.7 3-1-.2 2.8-1.8 5.4-3.2 7.8-4 7.1-11.2 15-16.8 21.1-7 7.9-21.9 16.8-18.5 28.5 4.2-4.5 7.6-9.8 11.7-14.3.7-.7 1.6-3 2.8-1.2-3.3 6.2-9.5 11-13.5 16.5-1 1.3-1.8 2-1.4 4l39.9-40.5 2-.4v2.5c0 .6-5.2 8.8-6 10-9.2 13.2-24.2 24.7-35.4 36.4l-.5 4.5c2.7 2 3.7-6 8-5.5-2 4.8-8.3 7.5-7 13 15-12.3 27.9-27.3 41.7-41 1.1-1.1 3.9-1.2 4.2.6.8 3.6-39 44-45 48.9-2 3.7-2.5 7.5-1 11.5 1 .7 16.9-13.7 18.7-15.4 7.7-7 17.4-19.3 25.3-25.1 1.3-1 2-1.9 4-1.5-7.8 14.7-21 25.4-33.5 36l-10.4 11c2 0 4 0 6-.5 1.4-.4 10.8-5.3 12.6-6.4 6.8-3.9 12.3-10.2 19.3-13.1 2 2.1-8.8 10.4-10.7 11.8-1.3 1-14.2 8.2-13.3 9.1h7l-2 3 100 31 1-54 2 1c-.8-3.5 1.8-9.3-2-10.4l2-2.5-2.2-.6 1-193.1-117.1-26c-2 .5-2 7.2-2.1 9.4-.4 17.3 2.2 34.6 1.4 52l-2.7 3.3-53.1-12.4c-2.6-3.6-.6-24-.5-29.7 0-3.8.4-7.6.4-11.3 0-4 .5-20.7-1.6-22.5-15.4-3-31-8.6-46.4-9.9l2-2c-4.6 2-3.6-.5-4.7-.9-6.8-2.4-13.6-.7-18-4-5.5.4-30.1-7.9-33.3-5.6-2.6 4 0 9.8 0 14 0 13.5-1.7 27.5.2 40.9l-2 1c2.7 4.8-1.9 13.5 3.6 16.3 9.1 1.9 18.3 3.5 27.3 5.7 27.6 6.8 55.2 15.3 82.6 22.3 4.5 1 24.2 4.1 26.2 5.8.7.6 1 1.5 1 2.4h2l.5-2c1.6.6.6 2.6 1.1 3 1 1.1 2.5.4 3.8 2.3 1.4 2 2.4 8.5 2.6 11.2ZM266.8 405c-1.3-1.6-13.2 12.6-15 14l14.9-9.2.1-4.8Zm-18 1-26 19.4c-1.6 1.7-3.4 2.8-3 5.5l25-20.4 4-4.5Zm16 8-43.7 37.6-1.2 3.3c12.3-8.7 22.7-19.5 34.5-29 .8-.7 1-2.1 1.7-2.6 1.7-1.3 6.2-1.5 7.7-4.8l-2-1 3-3.5Zm2 7-39 34c14-7.8 23.5-23.3 39-28.2V421Zm146.7 11.8c-8.2-3.8-18.2-2.7-25.8-6.9l-1 56 41 9-1.2-54.2c-1.2-4.8-10.4-1-10.8-5.7h-2l-.2 1.7ZM242 450.9c.8.8 13.9-11.6 15.5-13 1.8-1.4 10.4-5.5 8.4-8l-16 12.5-8 8.5Zm-5-19-14 10.5-4 5.5c1.9.5 2.4-1 3.5-2 4.8-4 10.2-9.3 14.5-14Zm-1 31 4 .5c3.1-4.5 8.2-8.9 12.5-12.5 2.5-2.1 11.5-7.4 12.4-8.5 1.7-1.8 1-4.2 1-6.5l-30 27Zm13 3c5.2 2.9 7-2.5 10.4-6 3.7-3.6 8-3.9 6.5-11l-17 17Zm8-13c-.8-.6-7.2 4.7-8 5.5-2 2-4 3.8-5 6.5 2.4.5 2.5-.4 3.8-1.6 3-2.8 6.2-7.4 9.1-10.4Zm10 7-3 1.5-6 6.5c2.3.5 4.6 1.8 7 .6l2-8.6Zm-68 8-9.6-3c-12.8 1.7-25.5 10.3-37.8 13-1.6.4-1.8-.7-1.6 2 32 10.1 65 17.7 97.2 27.3 29.6 8.8 58.5 19.1 88.5 27.4 4.3 1.2 7.3 4.1 12.4 3 1.8-.4 4.4-2.7 6.6-3.5 9-3 19-5.5 28.1-8.7 6-2.2 11.5-6.3 18-6.5 2-2-4.3-3.2-5.1-3.4-7.3-1.7-15.5-3-22.9-3.6l3-2c-3.7-.1-7.2-2-10.7-2.8-13.4-3-27.4-6-39.9-9.1-.8-.2-2.2.9-3.6 0-1-.7-.6-2-.7-2.1-.7-.4-1.4 1.5-2.5 1.6-3.8.3-6.8-3.5-7.2-3.6-4.4-1.2-13.8-1.3-20.1-2.7-27.2-6.2-54.9-14.2-80-20.7-1.7-.4-10-.8-11-1.8l-.1-2.8h-3l2 2Zm137.9 73c-6.5-2.5-13.7-3.7-20-5.5-55.4-16.2-110.2-33.3-165.6-49.2-2.5-.8-11.1-4.9-11.8-5-2.5 0-12.9 4.2-15.4 6.2l25.2 6.7c30.1 8.3 59.8 18.6 89.7 28.3 26.2 8.4 52.4 17.1 78.8 25l6.3.2 12.8-6.8Zm-27 11c-9.4 0-17-5.8-25-8.6A2601.1 2601.1 0 0 0 148.4 502c-11-3-22.2-5.8-33-10-1.5-.2-17.9 5.8-21 7-5.7 2.1-12.1 5.4-17.2 7.9-5 2.5-11.4 2.3-15.7 6l-2.5-2 .5 2c-8.6 2.2-16 7-24.4 8-.8 2.5 2 2.5 3.7 2.8 5.7.8 11.5 1 17.2 2.3l-3 2c2.1 0 4.3-.3 6.3.2 13.1 3 26.5 6.8 39.5 10.4 43.7 12.2 87.4 25.3 130.6 39.3 3.3 1.1 6.7 2.2 10.2 2.7 21.9-8.8 48.3-15.1 69-26.4 1-.7 1.6 0 1.2-2.2Zm2 61.4v-48.5l-61.9 26c1.5 17.5 1 35 1 52.5 0 41.9.6 84.8-1 126.8-.1 2.3-2.4 6.4 0 8 .8.7 17.2-5.4 18.4-7.5l1 2c2.1-2.3 5.8-1.8 8.1-2.9 3.2-1.5 4.8-3.2 9.6-5.4 40.3-18 83-35 121.8-56 2-1.2 3.6-2.9 5.7-3.8.8-5.8 1.4-11.5 1.6-17.3 2.4-49-.6-99-.9-147.9 0-5 1-10.4.5-15.5-2.6 1.1-5 3-7.8 3.8-6 1.7-9.7 2.2-16.2 4.8C380 536.9 368.6 544 356 546l-.7 53.8a17.2 17.2 0 0 1-4.7 4.2 231.6 231.6 0 0 1-29.5 11.4c-3 .6-8 2-9.2-2.1ZM186 578.7c-1.1-4-7.7-3.3-12-4.6-39.5-12.6-79-23.5-119.1-34.7-3.1-.9-25-8.6-26-7.5l2.3 170c1 2.5 12 6 15 7 6.2 2 10.9 2.4 17 5 5 2 11.2 4 16.7 6 3.2 1.1 6.6 2.3 10 2.8l-1 2c4-1.3 8.4.8 12.4 2 38 12.2 74.9 28.3 112.3 41.7 5.5 1.9 13.2 3 18.7 5.2 1.2.4 7.2 4.4 7.5 4 1-10.3-2.6-20-2.1-30.6.1-3 1.6-2.1 1.9-2.9.6-2.1-1.2-21.6-1.2-26-.5-29.5.5-58 .5-87 0-11.8.1-23.6.5-35.4a8.3 8.3 0 0 0-6.6-6.5c-5-1-2.4-.6-5.2-1.7-6.3-2.4-16-3.8-22.8-5.7l1 2c-1.9-.6-4.5-.6-6.2-1.1-.9-.3-.7-1.6-1.5-1.9-3-.8-7.3.9-8.8-3l-3.3.9Zm162.7-27.9-29 11.1c1.6 6.4-.4 42.2 2 43.9l25.5-11 1.4-44Zm99.9 156.9c-1.3-3.1-5.5-2.1-8-1.5-1.8.4-16.2 7.2-14 9.5l22-8Z" />
        <path
            d="m393.4 301.5-3.7-9.3h-.3l.6 8.8v39.6l-5.5-.8.2-61.5 3 .4 23.2 43.8 3.5 8.8h.4l-.8-8.4.1-39.5 5.4.8-.1 61.6-3-.5-23-43.9ZM429.6 286.3c3.4-.6 7.7-.2 11.7.3 8.5 1.3 18.5 6.2 18.5 21.3 0 14.7-9.3 18.7-18.9 17.3-.9-.1-4.7-.8-5.7-1.2v23l-5.8-.8.2-60Zm5.7 6.3v25c1 .5 4.4 1 5.4 1.2 6.3.9 13-.6 13-11.8 0-9.5-6.3-13.2-12.3-14.1-2.3-.3-4.8-.6-6-.3ZM503.8 316.2l.7-9h-.3l-2.7 7.9-12.6 25.5-1.8-.2-13.3-29.4-2.5-8.5-.3-.1 1 9.1-.2 40.8-5.4-.8.2-60.5 4.3.6 15.1 33.1 2.3 7 .1.1 2.2-6.6 14.5-28.8 4.5.7-.1 60.6-5.8-.9.1-40.6Z" />
    </g>
</svg>