<svg xmlns="http://www.w3.org/2000/svg" xmlns:xlink="http://www.w3.org/1999/xlink" width="799" height="450"
    viewBox="0 0 799 450">
    <defs>
        <style>
            .a {
                stroke: #707070;
                fill: url(#a);
            }

            .b {
                fill: #9414ea;
                font-size: 20px;
                font-family: SegoeUI, Segoe UI;
            }

            .c,
            .d,
            .e,
            .h {
                fill: none;
            }

            .c,
            .d,
            .e,
            .f {
                stroke: #9414ea;
            }

            .c {
                stroke-dasharray: 4 4;
            }

            .d {
                stroke-dasharray: 4;
            }

            .e,
            .f {
                stroke-width: 2px;
            }

            .f {
                fill: #fff;
            }

            .g {
                stroke: none;
            }
        </style>
        <style>
            .pulseAnim {
                transform-origin: 10.5px 10.5px;
                animation: pulseAnim 5s infinite;
            }
            @keyframes pulseAnim {
                0% {
                    opacity: 0;
                }
                30% {
                    transform: scale(1.2);
                    stroke-width: 4;
                    opacity: 0.5;
                }
                70% {
                    transform: scale(3.2);
                    stroke-width: 12;
                    opacity: 0.01;
                }
                100% {
                    transform: scale(1.2);
                    stroke-width: 4;
                    opacity: 0;
                }
            }
        </style>
        <radialGradient id="a" cx="0.686" cy="0.588" r="0.306"
            gradientTransform="matrix(1, -0.02, 0.031, 1.578, -0.019, -0.352)" gradientUnits="objectBoundingBox">
            <stop offset="0" stop-color="#f0d7fb" />
            <stop offset="1" stop-color="#e7afff" />
        </radialGradient>
    </defs>
    <g transform="translate(-175 -607)">
        <g class="a" transform="translate(175 607)">
            <rect class="g" width="799" height="450" rx="11" />
            <rect class="h" x="0.5" y="0.5" width="798" height="449" rx="10.5" />
        </g>
        <g transform="translate(0 67)"><text class="b" transform="translate(247 964)">
                <tspan x="0" y="0">CURIOSITY</tspan>
            </text><text class="b" transform="translate(507 964)">
                <tspan x="0" y="0">LEARNING</tspan>
            </text><text class="b" transform="translate(771 964)">
                <tspan x="0" y="0">GIVING BACK</tspan>
            </text>
            <line class="c" x2="2" y2="401" transform="translate(425.5 573.5)" />
            <line class="d" x2="2" y2="401" transform="translate(680.5 565.5)" />
        </g>
        <g transform="translate(202 636)">
            <path class="e"
                d="M873.345,852.778,1013.74,728.754l76.371-123.072,94.68,160.941,99.828-72.562,61.719,34.693,80.553-123.072,71.933-71.752,102.818-59.368"
                transform="translate(-864.936 -464.778)" />
            <g class="f" transform="translate(138 254.344)">
                <circle class="g" cx="10.5" cy="10.5" r="10.5" />
                <circle class="h" cx="10.5" cy="10.5" r="9.5" />
            </g>
            <g class="f" transform="translate(0 377)">
                <circle class="g" cx="10.5" cy="10.5" r="10.5" />
                <circle class="h" cx="10.5" cy="10.5" r="9.5" />
            </g>
            <g class="f" transform="translate(214 133.823)">
                <circle class="g" cx="10.5" cy="10.5" r="10.5" />
                <circle class="h" cx="10.5" cy="10.5" r="9.5" />
            </g>
            <g class="f" transform="translate(409 220.633)">
                <circle class="g" cx="10.5" cy="10.5" r="10.5" />
                <circle class="h" cx="10.5" cy="10.5" r="9.5" />
            </g>
            <g class="f" transform="translate(469 250.279)">
                <circle class="g" cx="10.5" cy="10.5" r="10.5" />
                <circle class="h" cx="10.5" cy="10.5" r="9.5" />
            </g>
            <g class="f" transform="translate(554 127.715)">
                <circle class="g" cx="10.5" cy="10.5" r="10.5" />
                <circle class="h" cx="10.5" cy="10.5" r="9.5" />
            </g>
            <g class="f" transform="translate(627 57)">
                <circle class="g" cx="10.5" cy="10.5" r="10.5" />
                <circle class="h pulseAnim" cx="10.5" cy="10.5" r="9.5" />
            </g>
            <g class="f" transform="translate(726)">
                <circle class="g" cx="10.5" cy="10.5" r="10.5" />
                <circle class="h" cx="10.5" cy="10.5" r="9.5" />
            </g>
            <g class="f" transform="translate(311 288.012)">
                <circle class="g" cx="10.5" cy="10.5" r="10.5" />
                <circle class="h" cx="10.5" cy="10.5" r="9.5" />
            </g>
        </g><text class="b" transform="translate(202 668)">
            <tspan x="0" y="0">IDEAS, PLANS, DONE...</tspan>
        </text>
    </g>


    <!-- undraw_my_answer_iw6k.svg -->
    <defs>
        <style>
            ._a {
                fill: #e6e6e6;
            }

            ._b {
                fill: #fff;
            }

            ._c {
                fill: #6c63ff;
            }

            ._d {
                fill: #3f3d56;
            }

            ._e {
                fill: #a0616a;
            }

            ._f {
                fill: #2f2e41;
            }
        </style>
    </defs>
    <g transform="translate(90, 100)">
        <rect class="_a" width="26.738" height="6.497" transform="translate(9.744)" />
        <path class="_b" d="M387.247,126.327h25.335v-5.094H387.247Z" transform="translate(-376.802 -120.531)" />
        <circle class="_c" cx="1.941" cy="1.941" r="1.941" transform="translate(13.33 1.308)" />
        <rect class="_c" width="12.984" height="0.422" transform="translate(19.912 2.489)" />
        <rect class="_c" width="12.984" height="0.422" transform="translate(19.912 3.586)" />
        <rect class="_a" width="26.738" height="6.497" transform="translate(0 10.935)" />
        <path class="_b" d="M286.8,239.053h25.335v-5.094H286.8Z" transform="translate(-286.096 -222.323)" />
        <circle class="_a" cx="1.941" cy="1.941" r="1.941" transform="translate(3.586 12.243)" />
        <rect class="_a" width="12.984" height="0.422" transform="translate(10.168 13.424)" />
        <rect class="_a" width="12.984" height="0.422" transform="translate(10.168 14.521)" />
        <rect class="_a" width="26.738" height="6.497" transform="translate(0 21.869)" />
        <path class="_b" d="M286.8,351.78h25.335v-5.094H286.8Z" transform="translate(-286.096 -324.115)" />
        <circle class="_a" cx="1.941" cy="1.941" r="1.941" transform="translate(3.586 23.177)" />
        <rect class="_a" width="12.984" height="0.422" transform="translate(10.168 24.359)" />
        <rect class="_a" width="12.984" height="0.422" transform="translate(10.168 25.456)" />
        <rect class="_d" width="35.081" height="0.243" transform="translate(27.084 60.781)" />
        <path class="_e" d="M711.017,206.544l1.726,4.249,1.062,2.921,2.788-4.116a6.319,6.319,0,0,1-1.726-3.983Z"
            transform="translate(-669.165 -196.728)" />
        <path class="_e" d="M370.656,566.559l-.8,3.983,2.257,1.859.929-5.842Z" transform="translate(-333.982 -511.602)" />
        <path class="_e" d="M509.734,556.978l-.266,4.78,2.257-.4.266-4.116Z" transform="translate(-460.049 -502.95)" />
        <circle class="_e" cx="3.054" cy="3.054" r="3.054" transform="translate(40.723 5.899)" />
        <path class="_a"
            d="M694.955,247.981s1.062,9.294.266,9.294-4.647-.8-5.443-1.46-3.319-.4-3.319-.4-1.859,1.46-2.788.664.664-10.09.664-10.09l-.4-5.709s1.726-.531,2.523.266l.243-.288.69-.815,1.058.971.012.045.386,1.415a9.606,9.606,0,0,1,.965-2.323.281.281,0,0,1,.1-.066c.4-.133,1.1-1.067,1.1-1.067l1.576.805.114.129,3.319.929Z"
            transform="translate(-644.208 -226.349)" />
        <path class="_f"
            d="M656.278,408.816l-.266,1.328s-1.461.266-1.062,3.054l-1.062,9.825-1.726,12.215,3.186.4,6.107-18.056,3.718,17.127h3.319l-.664-19.119s.531-3.983-1.328-5.842S657.871,407.754,656.278,408.816Z"
            transform="translate(-616.019 -379.616)" />
        <path class="_f"
            d="M610.4,713.039s.266-1.062-.4-1.195a1.325,1.325,0,0,0-1.328.664c-.133.266-3.186,3.983-3.186,3.983s-2.257,2.655,1.062,2.523,3.452-1.726,3.452-1.726,0-.266.664-.266,2.39-.929,2.257-1.593a24.7,24.7,0,0,0-1.249-2.958S610.935,714.367,610.4,713.039Z"
            transform="translate(-573.199 -653.834)" />
        <path class="_f"
            d="M788.552,703.762s-1.195-.8-1.859-.266a6.489,6.489,0,0,1-.929.664l-.011.08a6.5,6.5,0,0,0,.316,2.914c.079.236-.076.406-.039.59.2,1,.4,2.257,2.39,1.726S788.552,703.762,788.552,703.762Z"
            transform="translate(-736.61 -646.149)" />
        <path class="_e" d="M792.912,445.14s-2.257,2.39-.929,3.186,2.124-2.523,2.124-2.523Z"
            transform="translate(-741.9 -413.019)" />
        <path class="_e" d="M641.288,157.486s1.566-2.89.078-3.318-1.4,2.984-1.4,2.984Z"
            transform="translate(-605.002 -150.238)" />
        <path class="_a"
            d="M795.877,258.024l1.726-.4s1.859,1.46,2.523,6.506-1.859,13.144-1.859,13.144l-1.991-1.195a71.946,71.946,0,0,0,.929-7.3c-.133-.929-.929-4.514-.929-4.514Z"
            transform="translate(-745.794 -243.694)" />
        <path class="_f"
            d="M696.217,155.8l-.555-.2a3.95,3.95,0,0,1,2.777-1.06l-.454-.454a2.061,2.061,0,0,1,2.121.656,9.021,9.021,0,0,1,1.528,1.951h.595l-.248.5.869.5-.892-.089a2.506,2.506,0,0,1-.084,1.286l-.2.555a16.019,16.019,0,0,1-.808-1.818v.5s-.555-.454-.555-.757l-.3.353-.151-.555-1.868.555.3-.454-1.161.152.455-.555a6.567,6.567,0,0,0-1.363,1.212c-.281.482-.707,1.262-.707,1.262l-.3-.5S694.753,156.555,696.217,155.8Z"
            transform="translate(-654.829 -150.124)" />
        <path class="_a"
            d="M626.284,181.262l-.664-.266-3.518-.465.2-6.306-1.593-1.46s-4.381,7.966.133,10.887a38.741,38.741,0,0,0,5.975,3.452Z"
            transform="translate(-585.893 -167.065)" />
    </g>

</svg>