<?xml version="1.0" encoding="UTF-8"?>
<svg id="Layer_2" data-name="Layer 2" xmlns="http://www.w3.org/2000/svg" viewBox="0 0 835.77 835.77">
  <defs>
    <style>
      .cls-1 {
        fill: #b3b3b3;
      }
    </style>
  </defs>
  <g id="traced_copy" data-name="traced copy">
    <g id="minimum">
      <rect class="cls-1" width="835.77" height="835.77"/>
      <path d="M681.43,302.07l48.33,7.12c11.56,2.99,22.75,5.67,34.17,7.79,8.32,1.54,16.54,2.63,24.67,5.3,7.94,4.81,4.62,11.57,4.64,18.24.21,69.94-1.07,139.93-1.36,209.81-.05,12.06,1.43,24.61-.56,36.45l22.5-10.99.98,2.04,5.48-2.03-10.68,8.8c-3.45,2.25-17.64,8.98-19,10.48-.65.72-1.14,3.56-2.29,4.69l10.48-5.01,1.51,2.01c-14.89,5.44-27.73,15.05-41.27,23.18-55.84,33.54-111.77,67.8-168.44,100.3-7.33,4.21-19.31,13.45-27.25,15.75-5.57,1.61-10.35-1.43-15.14-2.5-20.59-4.62-40.14-10.42-60.1-15.33-21.49,6.35-41.52,17.91-61.46,28.05-12.3,1.5-25.74,10.27-37.98,15.62-14.57,6.37-43.06,19.96-57.47,22.7-1.17.22-4.29.71-3.42-1.42,1.67-1.68,3.14-3.56,5.28-4.71,7.45-4.02,18.36-7.25,26.36-10.61,31.66-13.32,63.23-29.72,95.56-43.3,7.03-2.96,14.28-5.78,21.64-7.83l-10.73-4.81c-39.4,14.15-75.55,35.57-113.47,52.95-8.93,4.09-53.93,24.07-60.1,23.84-1.5-.06-2.94.67-2.5-1.51.73-2.74,8.31-6.17,11.28-7.71,22.56-11.77,49.23-20.66,72.63-31.27,25.29-11.47,48.56-25.03,74.74-34.15,2.83-.99,6.31-1.13,9.17-2.33l-3.39-1.97c-10.81,3.91-22.61,7.47-33.17,11.84-14.99,6.21-29.91,16.53-46.1,20.91-2.59.7-2.89-2.52-4.76,3.19l-1.92-1.95c-3.03,1.14-4.6,4.24-7.29,5.72-26,14.29-69.19,29.41-97.91,39.95-9.39,3.45-13.78,5.94-24,2.53-1.15-.38-1.28-1.9-1.46-1.97-42.86-15.36-85.84-30.99-128.91-46.53-22.61-8.16-45.53-15.53-68-23.88-12.61-4.69-22.46-3.19-23.69-20.29-.63-8.76,0-18.17.1-26.97.44-40.08.53-80.02-.3-119.94-.16-7.96.41-16.21.11-24.02-.12-3.25-3.01-5.25-.34-10.42,1.83-3.54,27.07-11.94,27.5-13.66.37-7.99-1.79-18.13-1.15-25.87.16-1.97,2.22-1,2.18-2.88-.22-10.34-.93-20.72-1.04-31-.42-38.76-.77-76.51-1.62-115.42,1.18-5.25,3.86-3.98,6.47-5.6,15.8-9.86,34.13-17.95,50.21-26.5,29.94-15.93,60.65-34.1,91.51-48.57,17.43-8.17,48.77.87,67.83,1.69,1.17.05,2.12.18,2.92-.89l.42-47.43c2.1-13.62-1.11-29.52.29-42.91.15-1.41,1.82-2.68,1.78-4.09-.02-.5-1.87-.43-2.05-1.16-.56-2.22.9-15.46.94-18.89.11-8.12-1.36-25.61,1.85-32.14,1.7-3.46,16.15-10.48,20.51-12.45,14.57-6.59,31.41-11.66,44.94-18.48,5.24-2.64,6.03-2.24,11.06-2.36.29,0,3.47-3.44,4.42-3.86,6.71-2.95,12.63-4.82,19.65-8.11,10.2-4.77,14.67-5.94,24.77-9.2,3.61-1.16,10.99-5.53,14.26-5.74,9.08-.57,28.86,1.39,38.81,2.05,28.73,1.92,57.31,6.59,86.03,8.88,31.49,2.51,63.37,2.27,94.88,5.03,11.3.99,28.18,2.13,38.85,4.1,7.18,1.33,15.96,3.82,16.63,12.34,1.14,46.98.18,94.24.91,140.85.18,11.31.69,22.77.93,34.13.36,17.39-.12,34.93.14,52.32ZM433.51,55.57c-.79-.32-13.74-.61-16.78-.79-12.82-.77-20.91,4.29-32.97,8.05-1.5.47-5.74,1.11-5.02,3.46,12.07-1.1,23.93,2.49,35.58,3.89,56.85,6.83,113.67,12.86,170.59,20.22,9.93,1.29,21.2,4.62,31.15,4.9,8.33.23,32.36-15.25,40.18-19.95.99-.59,7.64-1.54,2.89-2.91-7.37,2.76-16.36-.09-24.15-.58-35.53-2.22-71.49-4.76-106.96-7.56-16.59-1.31-35.39-4.93-50.91-4.05-8.82.5-37.16-2.08-43.59-4.68ZM610.49,99.27c-4.99-.77-10.62-.48-15.47-1.01-68.09-7.53-135.99-17.9-203.81-23.96-10.03-.9-20.96-4.9-30.47-.99-.02,1.92-.58,2.05,1.41,1.85,15.02-1.54,28.66,3.36,43.55,2.14l-1.01,1.98,7.49-1.01c-.92,3.06,1.29,2.97,2,.01,1.38,1.52,3.24,2.41,5.24,2.77,6.56,1.2,14.96,1.39,21.67,2.3,5.47.75,10.23,3.77,16.56.93l-1,1.97c4.25,1.7,8.78-.07,13.16.33,24.39,2.24,50.28,9.29,74.31,12.63,12.54,1.74,38.05,1.14,49.03,5.92,2.45,1.07,2.2,2.9,2.44,3.08.61.44,11.61-5.91,13.49-6.86,1.06-.53,1.89.52,1.42-2.08ZM591.51,109.26c-14.08,1.12-27.69-3.22-41.47-4.98-59.43-7.62-119.51-14.08-178.65-23.15-5.78-.89-13.81-3.95-19.15-3.92-7.39.04-24.71,10.46-32.47,13.55-2.87,1.14-25.01,7.6-24.97,9.01,21.99,3.59,44.26,6.25,66.26,9.64,47.39,7.32,94.6,14.42,141.93,20.95,7.85,1.08,16.38,3.91,24.21,4.76,13.33,1.44,17.65-3.84,29.13-8.7,1.9-.8,3.59-.2,5.15-.77,3.29-1.2,5.1-7.39,6.55-2.4.77-1.71,3.63-1.59,4.31-2.17.17-.15-.91-2.82,1.71-3.82l1.98,1.99c3.45-3.76,8.81-5.22,13.34-7.67,1.31-.71,2.71.52,2.14-2.31ZM668.23,309.86l-.83-24.32c2.11-65.49-3.09-131.88.1-197.82l-1.55-3.43c-3.15,3.51-8.82,4.52-12.42,6.58-1.2.69-3.16,3.4-6.02,4.93-4.64,2.47-10.88,4.82-15.91,6.57l.68,55.13c-.48,1.62-4.89,5.28-6.46,6.53-3.57,2.82-23.78,15.62-27.26,16.72-1.14.36-2.2.7-3.41.36-1.25-.4-1.42-1.28-1.63-2.42-1.3-6.94.57-17.54-1.09-24.97,1.01-8.76,2.09-20.28,1.14-29.02-.16-1.5-.1-2.49-1.54-3.42l-46.5,23.71-1.96,240.48c1.76.37,5.9-1.75,7.34-2.64,11.05-6.77,22.14-14.27,32.7-21.25,3.15-2.08,11.18-4.25,13.73-6.2,1.64-1.25.87-2.65,1.83-3.43,3.93-3.2,14.89-7.54,20.56-11.18,16.15-10.35,32.52-20.36,48.52-30.92ZM616.53,157.27c12.07-2.15,7.06-12.74,6.91-21.5-.18-10.49.23-21.02.03-31.51-4.47,4.3-16.56,7.04-20.3,10.91-3.07,3.18-1.17,19.34-1.05,24.39l-1.61,29.64c5.31-3.45,11.24-8.11,16.98-10.01l-.96-1.92ZM374.44,123.58c-6.71-1.7-15.15-.82-22-1.73-20.15-2.66-40.71-6.63-60.68-10.03-2.44-.42-14.49-4.5-15.89-3.54l-1.61,239.8c1.22,1.75,8.25.68,10.95,1.04,17.04,2.29,34.01,8.54,50.11,11.83,24.8,5.06,53.5,7.46,78.7,11.21,19.63,2.92,39.51,4.96,59.04,7.89,1.69.25,8.31,4.31,5.55-.06l2.5-.03c.75,3.15,2.11,1.24,4.31,1.68,12.54,2.51,25.41,2.97,37.4,5.59,2.99.65,5.67,2.38,8.74,2.74-1.33-9.87,1.7-20.99,1.04-30.5-.24-3.48-3.15-4.49-.04-7.44l-1.7-.22c-.19-9.76,1.52-19.48,1.78-29.28.11-4.18.71-14.89.45-18.01-.34-4.15-3.81-7.89.49-12.93l-2.02-.02,1.52-143.31c-2.19-3.21-9.35-1.6-12.89-2.13-6.57-1-12.35-4.72-18.6-1.91l1.01-1.97-5.99-1.01.62,1.88c-23.67-4.93-47.81-8.08-71.92-10.85l-1.62-2.02-.57,2.04c-15.28-4.52-31.3-3.8-46.92-7-1.77-.36-1.55-1.66-1.77-1.71ZM230.88,258.1c-1.2.88-19.46-3.63-23.2-2.78-7.11,1.64-16.2,8.63-23.98,10.07l-28.76,15.69,36,5.43,70.88,16.55-1-41.95-28.52-3.15-.46-1.83h-2s1.02,1.97,1.02,1.97ZM262.83,308.06c-1.09.33-1.72.85-2.99.57-33.82-7.32-67.03-14.4-101.1-20.85-2.94-.56-7.93-2.84-10.23-2.68s-5.39,3.08-7.84,4.19c-15.3,6.88-29.69,15.94-45.34,22.59l-25.3,15.15,25.68,6.65c6.69-1.38,13.97,1.33,19.79,4.35l.92-1.95,17.76,5.26c18.1,3.36,36.16,6.77,54.17,10.76,7.92,1.76,15.6,5.46,23.85,5.74,9.59-4.87,18.64-10.73,27.97-16.03,2.24-1.27,4.14-2.23,6.4-3.53,5.98-3.46,16.55-5.61,15.26-14.2-2.08-.6-4.26-.51-6.35-1.05-32.49-8.38-66.24-14.54-99.47-22.51-6.87-1.65-13.54-1.62-20.55-4.44-1.15-.46-1.89.77-1.47-1.98l7.33-2.73c25.56,5.6,50.83,12.55,76.81,15.97l42.72,10.73c1.25-2.06-.16-4.71.21-6.26.33-1.38,2.3-1.9,1.78-3.73ZM728.38,322.06c-9.13,2.28-17.93,5.83-26.92,8.53-26.09,7.83-51.14,24.87-76.3,35.59-14.49,6.18-27.2,10.75-41.53,18.41-15.65,8.37-13.36,10.06-32.35,12.58-2.92.39-5.16,3.52-7.45,4.56-9.46,4.28-32.4-5.66-45.25-2.28-7.19,1.89-43.56,20.45-50.84,25.08-.63.4-2.45,1.89-2.08,2.4,14.75,3.16,29.71,5.44,44.47,8.54,17.76,3.73,36.32,8.79,53.8,11.5,2.12.33,3.85,1.63,5.94,1.63,7.56.02,9.41-3.51,14.75-6.09,30.75-14.9,60.15-33.97,90.15-50.71,31.76-17.71,63.57-33.74,95.49-51.37,5.39-2.98,9.41-9.62,17.08-8.4.24-2.64.05-1.62-1.5-1.98-4.17-.97-8.71-.82-12.5-1.49-1.58-.28-3.22-2.08-5.55-2.46-2.97-.48-6.4.2-9.44-.07l1.01-1.98c-2.72-1.85-13.61,5.29-16.78,6.7-33.2,14.79-66.56,29.04-99.46,44.4-13.57,6.34-26,14.72-41.17,17.87-1.74.36-4.36.57-6.18.65-1.14.05-3.46,1.21-3.25-.69l155.84-70.93ZM705.4,324.06c-18.37,1.85-33.65,13.05-50.27,20.15-3.38,1.44-7.28,3.53-9.85,4.66-.92.4-2.66-1.09-4.83-.45-2.28.67-11.47,6.77-14.66,8.53-2.15,1.19-3.19,1.94-4.91,2.92-2.29,1.31-5.9,2.09-7.38,4.13l91.9-39.94ZM204.8,368.9c-.69.34-11.98-4.07-14.63-4.66-26.26-5.78-53.2-10.15-79.19-15.64-18.58-3.93-36.91-9.84-55.93-11.58l1,161.84c4.23-1.6,8.4-3.5,12.8-4.73,3.38-.95,7.89-.4,10.92-1.94,1.96-1,1.94-3.58,5.97-4.21l1.76,1.9c2.57-3.38,9.41-.05,9.5-5h-3.98c2.57-1.72,6.12-.1,8.02-.59,15.55-4.02,39.71-15.21,55.88-20.91,18.37-6.48,21.22-10.57,42.5-8.47,3.57.35,6.7,2.65,10.48,2,.15-1.87-.95-3.51-.91-5.37.44-21.62-1.4-44.24-2.12-66.01-.2-6.02,1.35-11.79-.45-17.54-2.23-2.52-1.24.73-1.6.91ZM780.33,339.04c-.33-.37-7.85,3.04-8.88,3.6-56,30.8-110.72,60.61-166.28,91.47-12.99,7.21-24.14,11.97-35.02,22.4-.66.63-2.39.49-3.09,1.41-3.74,4.94-.56,22.61-.49,29.42.11,11.42-.81,22.95-.08,34.06l.05,21.45-1.98-1.01-1.01,8.99c2.84.43,1.82-.51,2-2.47.06-.65-.69-5.67,1-4.01l-1.99,175.33c16.02-10.71,35.07-17.13,49.6-29.81,33.95-17.46,65.18-39.56,97.92-58.93,20.02-11.84,42.42-22.57,61.65-35.29,1.52-1,1.45-3.49,4.45-2.95l1.16-105.81,2,.5c.49-2.38-1.86-.58-2.09-2.91-.7-7.2.77-14.9.88-22.06.47-30.67.44-61.4.16-91.86-.1-10.5.16-21.02.04-31.51ZM261.83,344.03c-.76-.87-9.55,4.5-10.9,5.58-2.64,2.1-4.36,5.44-6.15,6.84-6.2,4.85-14.71,9.19-20.85,14.12-1.8,1.44-6.22,4.73-4.57,7.42,11.52-7.32,21.22-17.15,33.18-23.76.88-.49,2.5-2.21,3.28-.71-5.57,4.74-10.9,9.78-16.51,14.46s-16.32,11.17-20.32,16.83c-.61.86-1.83.81-1.12,3.17,1.88.43,2.37-1.06,3.49-1.99,13.37-11.08,24.92-24.55,41.03-31.94l-.58-10.02ZM268.82,361c-1.09-7.15-8.88-2.32-12.84-.35l-35.1,30.32c6.03-2.8,11.58-7.57,16.88-11.58,9.12-6.9,16.86-15.06,27.6-19.38l.96,2.02,2.51-1.02ZM235.86,359.02c-2.39-.12-19.16,9.73-16.97,11.98l16.97-11.98ZM281.81,360.02c-9.52-1.07-17,7.72-22.97,13.97,7.58-2.76,12.94-13.83,21.97-9.97l1-4ZM286.81,364.01c-4.06,1.7-8.04,5.22-11.46,8.01-3.68,3.01-7.63,6.12-10.51,9.96l14.19-10.04,7.79-7.93ZM294.64,368.8c.42-.53,1.54-4.8-.33-4.77l-20.49,16.95c1.17,1.02,6.64-3.69,8.07-4.48.95-.52,2.39.47,2.74.25,1.43-.87,8.23-6.36,8.15-8.25.36-.22,1.69.52,1.86.3ZM277.81,366.99l-.48-1.97c-20.7,13.38-37.94,31.38-57.44,46.46l-1.01,4.48,58.92-48.97ZM255.84,370.01c-1.95-.16-3.36,1.57-4.87,2.61-10.81,7.44-20.92,16.67-31.61,24.34l-1.48,4.01,37.96-30.96ZM360.5,375.35c-.95-.4-16.89-2.65-20.33-3.26-12.5-2.2-10.07.13-19.71,4.09-12.78,5.23-25.38,10.8-38.28,15.71-1.45.55-2.9-.95-2.35,2.09,12.13.78,23.83,5.35,35.72,7.74,16.28,3.27,41.1,4.56,54.38,10.97,1.45.7,11.29.1,14.04,2.13l46.7-25.82c-8.58-.89-17.3-2.7-25.57-5.99l-1.81-.08c-2.06,4.89-1.93.78-4-.13-2.75-1.21-12.77-1.34-16.78-2.1-7.21-1.37-16.7-3.14-22.01-5.35ZM240.86,387c-1.87-.44-2.38,1.04-3.5,1.99-6.6,5.56-13.55,12.69-19.48,18.97l10-7.47,12.97-13.49ZM447.43,391.29c-1.7-1.04-3.83-.09-5.49.48-11.01,3.77-23.48,15.06-35.12,18.82l-9.11,5.86c2.88,5.3,8.38,2.09,12.43,2.56s13.44,2.47,16.63,3.47c1.38.44,2.32,1.94,3.43,2.09,2.63.37,40.98-21.37,47.23-24.3,3.54-1.66,7.27-2.91,11.19-3.3l-36.5-5.87-3.97,1.89c-.57.18-.38-1.5-.7-1.69ZM265.83,402.96c-.35-5.2-5.38-2.17-7.92-.42-5.6,3.86-15.44,13-21.06,17.9-4.8,4.18-9.61,8.84-13.97,13.49,2.93,1.12,3.65.07,5.9-1.58,12.39-9.1,22.75-23.25,37.05-29.39ZM247.85,400.98c-4.94,2.16-10.01,5.9-14.32,9.15-3.62,2.73-7.34,5.73-10.66,8.81,3.7-.83,7.19-3.98,10.31-6.17,4.96-3.49,10.41-7.48,14.67-11.8ZM426.68,525.35c.46,6.35-.33,13.09,0,19.48l7.93-10.55,4.05-1.43c.61,4.38-11.99,16.41-11.99,17.47v15.48c1.73.43,2-.71,3.01-1.49,3.86-2.99,9.87-10.24,13.98-12.02,1.78-.77,1.83-.29,2.97,1.01.16,3.95-17.43,16.57-19.42,20.55-.2.41-1.31,7.85.45,7.92,1.06-5.78,7.62-15.79,13.99-15.48l-14.47,17.5-.51,10.97c6.63-5.11,10.84-12.88,16.46-19,.95-1.03,13.19-14.68,13.48-8.48.08,1.79-18.31,25.59-20.99,28.95-6.51,8.15-12.17,9.07-7.95,22.51,12.58-11.35,23.02-27.84,35.95-38.47.8-.66,2.01-2.65,3.01-.98-.18,2.79-1.87,5.41-3.2,7.79-4.02,7.16-11.28,14.96-16.8,21.16-6.99,7.85-21.91,16.8-18.48,28.48,4.17-4.49,7.51-9.79,11.67-14.31.7-.76,1.56-2.93,2.81-1.18-3.37,6.18-9.52,11.03-13.53,16.44-1.01,1.36-1.84,2.1-1.44,4.05l39.94-40.48,2.01-.48c-.06.83.13,1.72.06,2.55-.05.58-5.29,8.76-6.08,9.9-9.17,13.3-24.21,24.77-35.41,36.52l-.53,4.47c2.74,1.97,3.76-5.93,8-5.48-1.99,4.83-8.26,7.51-6.98,12.98,15.05-12.34,27.91-27.26,41.68-40.93,1.17-1.22,3.9-1.25,4.26.48.76,3.68-38.97,44.08-44.98,48.91-1.96,3.72-2.51,7.56-.96,11.51.97.72,16.78-13.63,18.62-15.33,7.72-7.1,17.36-19.37,25.27-25.18,1.36-1,2.09-1.86,4.04-1.44-7.8,14.68-20.94,25.38-33.53,35.91l-10.42,11.03c2.06.13,4.01.12,6.02-.46,1.41-.41,10.81-5.3,12.63-6.35,6.77-3.9,12.35-10.22,19.3-13.16,2.06,2.16-8.77,10.44-10.65,11.81-1.35.98-14.29,8.25-13.32,9.15l6.99.02-2,2.98,99.89,30.98,1.02-53.95,1.98,1.01c-.67-3.61,1.92-9.38-2-10.51l2-2.47-2.07-.63.99-193.11-117.17-25.99c-2.04.57-2.01,7.26-2.06,9.42-.42,17.26,2.19,34.62,1.41,51.92l-2.69,3.37-53.16-12.4c-2.61-3.61-.52-24.03-.44-29.73.05-3.74.33-7.55.38-11.23.05-4.06.52-20.72-1.63-22.5-15.33-3.11-30.88-8.62-46.33-9.9l1.99-1.98c-4.65,1.92-3.66-.56-4.74-.94-6.82-2.4-13.6-.75-17.99-4.01-5.47.36-30.1-7.88-33.27-5.64-2.64,4.12-.01,9.8-.04,13.96-.08,13.6-1.68,27.59.16,40.97l-1.97,1.02c2.74,4.82-1.88,13.53,3.62,16.34,9.1,1.84,18.26,3.48,27.28,5.69,27.58,6.75,55.19,15.3,82.66,22.23,4.43,1.12,24.16,4.18,26.19,5.83.7.57.95,1.54,1.04,2.43l1.95-.04.52-1.95c1.56.61.55,2.52,1.06,3.05,1.02,1.06,2.48.32,3.78,2.18,1.46,2.08,2.46,8.5,2.66,11.25ZM266.83,404.97c-1.36-1.58-13.18,12.61-14.98,13.97l14.83-9.13.15-4.84ZM248.85,405.98l-25.99,19.46c-1.65,1.63-3.5,2.74-2.98,5.5l24.98-20.46,3.98-4.5ZM264.83,413.97l-43.72,37.65-1.23,3.3c12.34-8.74,22.7-19.51,34.48-28.99.86-.69,1.09-2.15,1.77-2.67,1.66-1.29,6.22-1.49,7.69-4.8l-1.99-.99,2.99-3.49ZM266.83,420.96l-38.95,33.96c13.88-7.68,23.45-23.17,38.84-28.08l.11-5.88ZM413.54,432.75c-8.21-3.7-18.2-2.65-25.82-6.8l-1.01,55.95,40.96,8.99-1.18-54.24c-1.24-4.75-10.4-.95-10.82-5.68h-1.96s-.17,1.78-.17,1.78ZM241.87,450.92c.83.78,13.9-11.63,15.51-12.96,1.77-1.46,10.41-5.57,8.45-8.02l-15.99,12.47-7.97,8.5ZM236.86,431.95l-14,10.47-3.98,5.5c1.88.43,2.37-1.05,3.49-1.99,4.84-4.04,10.22-9.3,14.48-13.98ZM235.86,462.9l4.03.53c3.12-4.53,8.17-8.89,12.48-12.48,2.58-2.15,11.5-7.41,12.47-8.51,1.63-1.83.92-4.27.98-6.51l-29.96,26.96ZM248.86,465.9c5.22,2.85,6.95-2.49,10.46-6,3.64-3.65,8.02-3.9,6.51-10.96l-16.97,16.97ZM256.84,452.93c-.72-.65-7.16,4.66-8,5.47-2,1.93-4,3.79-4.98,6.49,2.42.52,2.54-.4,3.85-1.63,2.92-2.74,6.16-7.36,9.14-10.34ZM266.83,459.92l-3.01,1.48-5.98,6.49c2.32.5,4.68,1.77,7.06.59l1.93-8.55ZM198.89,467.9l-9.57-2.97c-12.78,1.69-25.5,10.23-37.86,13-1.54.34-1.76-.72-1.51,1.96,32.03,10.14,64.92,17.69,97.11,27.28,29.63,8.82,58.56,19.17,88.49,27.4,4.38,1.2,7.33,4.18,12.43,3.03,1.85-.42,4.41-2.71,6.57-3.45,9.08-3.11,19.05-5.53,28.18-8.79,5.94-2.12,11.42-6.21,17.98-6.5,2.02-2.01-4.29-3.12-5.15-3.33-7.23-1.75-15.45-3.07-22.82-3.66l2.99-1.98c-3.75-.11-7.2-1.96-10.73-2.76-13.38-3.01-27.37-6.1-39.87-9.15-.79-.19-2.25.91-3.65-.03-.94-.63-.61-2-.7-2.05-.65-.35-1.41,1.55-2.48,1.63-3.78.28-6.76-3.55-7.19-3.66-4.41-1.15-13.82-1.22-20.11-2.65-27.19-6.19-54.9-14.17-80.07-20.71-1.63-.42-9.9-.77-10.9-1.77l-.13-2.8h-2.98s1.99,1.97,1.99,1.97ZM336.76,540.85c-6.45-2.48-13.62-3.62-20-5.48-55.33-16.14-110.16-33.29-165.57-49.22-2.49-.72-11.11-4.85-11.75-4.87-2.5-.1-12.94,4.11-15.46,6.12l25.23,6.73c30.11,8.29,59.77,18.61,89.65,28.23,26.25,8.46,52.43,17.15,78.87,25.02l6.3.22,12.72-6.75ZM309.79,551.83c-9.41.06-16.95-5.76-24.98-8.51-44.86-15.41-91.52-28.69-136.42-41.39-11.01-3.11-22.22-5.88-33.01-10.04-1.53-.16-17.87,5.81-20.91,6.96-5.77,2.17-12.17,5.4-17.27,7.93-4.99,2.47-11.41,2.3-15.69,6.09l-2.49-1.99.5,1.98c-8.58,2.17-15.94,6.94-24.47,8-.76,2.44,1.97,2.43,3.76,2.7,5.73.87,11.53,1.06,17.22,2.3l-2.98,1.98c2.07.04,4.2-.22,6.25.25,13.14,3.03,26.53,6.82,39.51,10.44,43.73,12.2,87.35,25.22,130.55,39.29,3.37,1.1,6.69,2.18,10.21,2.69,21.92-8.81,48.32-15.11,68.95-26.44,1.15-.63,1.69.05,1.28-2.22ZM311.79,613.26v-48.45l-61.87,26.08c1.48,17.36.89,34.95.89,52.39,0,41.92.67,84.79-.96,126.82-.09,2.3-2.33,6.38-.02,8.06.87.64,17.29-5.41,18.51-7.55l.97,2c2.13-2.29,5.75-1.79,8.11-2.9,3.13-1.48,4.73-3.21,9.6-5.39,40.3-18.03,83.05-34.98,121.73-56.09,2.01-1.1,3.61-2.81,5.71-3.77.83-5.71,1.39-11.5,1.66-17.27,2.35-48.9-.65-98.99-.88-147.86-.02-4.96.93-10.39.43-15.48-2.62,1.1-5,2.92-7.77,3.72-5.97,1.73-9.7,2.28-16.18,4.79-11.83,4.57-23.16,11.78-35.79,13.66l-.71,53.74c-1.37,1.62-2.88,3.2-4.77,4.22-4.52,2.43-24.66,10.43-29.44,11.42-2.92.61-8.08,1.93-9.23-2.14ZM186.06,578.7c-1.08-3.92-7.68-3.3-11.89-4.64-39.54-12.54-79.15-23.45-119.18-34.67-3.1-.87-25.02-8.59-25.92-7.54l2.21,170.12c1.04,2.45,12.05,5.93,15.09,6.9,6.1,1.96,10.81,2.46,17.02,5,5,2.05,11.1,4.12,16.65,6.06,3.17,1.11,6.61,2.23,9.98,2.74l-1.01,1.98c3.96-1.3,8.41.8,12.42,2.08,38.05,12.15,74.85,28.29,112.29,41.63,5.44,1.94,13.22,3.1,18.72,5.19,1.14.43,7.19,4.4,7.43,4.05,1.04-10.27-2.56-19.95-2.09-30.56.14-3.13,1.67-2.19,1.88-2.91.63-2.13-1.14-21.63-1.21-25.98-.49-29.58.59-58.06.57-87.04,0-11.78.1-23.61.44-35.4-.76-3.33-3.15-5.88-6.52-6.52-5.11-.97-2.39-.61-5.27-1.71-6.31-2.41-16.06-3.79-22.76-5.68l1.02,1.98c-1.88-.59-4.56-.54-6.23-1.08-.86-.28-.7-1.63-1.49-1.86-2.95-.86-7.29.82-8.85-3.06l-3.26.92ZM348.75,550.83l-28.94,11.07c1.59,6.41-.44,42.15,1.98,43.87l25.51-10.94,1.45-43.99ZM448.66,707.66c-1.3-3.1-5.48-2.1-8.01-1.49-1.75.42-16.12,7.25-13.96,9.5l21.97-8Z"/>
      <g>
        <path d="M393.37,301.46l-3.72-9.28-.28-.04.67,8.84-.1,39.64-5.4-.77.15-61.54,3.05.43,23.11,43.73,3.58,8.82.35.05-.74-8.42.1-39.47,5.4.77-.15,61.54-3.05-.43-22.97-43.88Z"/>
        <path d="M429.58,286.28c3.47-.54,7.76-.19,11.71.37,8.52,1.22,18.56,6.2,18.52,21.26-.04,14.71-9.34,18.67-18.9,17.3-.9-.13-4.71-.76-5.68-1.16l-.06,23.02-5.75-.82.15-59.98ZM435.32,292.55l-.06,25.1c.97.48,4.43.98,5.4,1.12,6.31.9,13.03-.56,13.06-11.73.02-9.52-6.34-13.29-12.3-14.14-2.36-.34-4.78-.6-6.1-.35Z"/>
        <path d="M503.81,316.18l.72-8.99-.35-.05-2.65,7.93-12.68,25.55-1.73-.25-13.3-29.34-2.47-8.58-.35-.05.95,9.14-.1,40.76-5.4-.77.15-60.58,4.3.61,15.1,33.15,2.27,7.08.14.02,2.17-6.62,14.56-28.75,4.5.64-.15,60.58-5.75-.82.1-40.68Z"/>
      </g>
    </g>
  </g>
</svg>